STARTFONT 2.1
COMMENT Recovered from ar1.1:TR10I 1 (Xerox Alto CONVERT font source (AL) recovered from MIT CADR AR1 ARC!!!)
FONT MIT-CADR-TR10I-AL-AR1
SIZE 12 72 72
FONTBOUNDINGBOX 15 12 0 -4
STARTPROPERTIES 2
FONT_ASCENT 8
FONT_DESCENT 4
ENDPROPERTIES
CHARS 128
STARTCHAR C0000
ENCODING -1 0
SWIDTH 0 0
DWIDTH 0 0
BBX 0 12 0 -4
BITMAP
00
00
00
00
00
00
00
00
00
00
00
00
ENDCHAR
STARTCHAR C0001
ENCODING -1 1
SWIDTH 0 0
DWIDTH 0 0
BBX 0 12 0 -4
BITMAP
00
00
00
00
00
00
00
00
00
00
00
00
ENDCHAR
STARTCHAR C0002
ENCODING -1 2
SWIDTH 0 0
DWIDTH 0 0
BBX 0 12 0 -4
BITMAP
00
00
00
00
00
00
00
00
00
00
00
00
ENDCHAR
STARTCHAR C0003
ENCODING -1 3
SWIDTH 0 0
DWIDTH 0 0
BBX 0 12 0 -4
BITMAP
00
00
00
00
00
00
00
00
00
00
00
00
ENDCHAR
STARTCHAR C0004
ENCODING -1 4
SWIDTH 0 0
DWIDTH 0 0
BBX 0 12 0 -4
BITMAP
00
00
00
00
00
00
00
00
00
00
00
00
ENDCHAR
STARTCHAR C0005
ENCODING -1 5
SWIDTH 0 0
DWIDTH 0 0
BBX 0 12 0 -4
BITMAP
00
00
00
00
00
00
00
00
00
00
00
00
ENDCHAR
STARTCHAR C0006
ENCODING -1 6
SWIDTH 0 0
DWIDTH 0 0
BBX 0 12 0 -4
BITMAP
00
00
00
00
00
00
00
00
00
00
00
00
ENDCHAR
STARTCHAR C0007
ENCODING -1 7
SWIDTH 0 0
DWIDTH 0 0
BBX 0 12 0 -4
BITMAP
00
00
00
00
00
00
00
00
00
00
00
00
ENDCHAR
STARTCHAR C0008
ENCODING -1 8
SWIDTH 0 0
DWIDTH 0 0
BBX 0 12 0 -4
BITMAP
00
00
00
00
00
00
00
00
00
00
00
00
ENDCHAR
STARTCHAR C0009
ENCODING -1 9
SWIDTH 0 0
DWIDTH 0 0
BBX 0 12 0 -4
BITMAP
00
00
00
00
00
00
00
00
00
00
00
00
ENDCHAR
STARTCHAR C000A
ENCODING -1 10
SWIDTH 0 0
DWIDTH 0 0
BBX 0 12 0 -4
BITMAP
00
00
00
00
00
00
00
00
00
00
00
00
ENDCHAR
STARTCHAR C000B
ENCODING -1 11
SWIDTH 0 0
DWIDTH 0 0
BBX 0 12 0 -4
BITMAP
00
00
00
00
00
00
00
00
00
00
00
00
ENDCHAR
STARTCHAR C000C
ENCODING -1 12
SWIDTH 0 0
DWIDTH 0 0
BBX 0 12 0 -4
BITMAP
00
00
00
00
00
00
00
00
00
00
00
00
ENDCHAR
STARTCHAR C000D
ENCODING -1 13
SWIDTH 0 0
DWIDTH 0 0
BBX 0 12 0 -4
BITMAP
00
00
00
00
00
00
00
00
00
00
00
00
ENDCHAR
STARTCHAR C000E
ENCODING -1 14
SWIDTH 0 0
DWIDTH 0 0
BBX 0 12 0 -4
BITMAP
00
00
00
00
00
00
00
00
00
00
00
00
ENDCHAR
STARTCHAR C000F
ENCODING -1 15
SWIDTH 0 0
DWIDTH 0 0
BBX 0 12 0 -4
BITMAP
00
00
00
00
00
00
00
00
00
00
00
00
ENDCHAR
STARTCHAR C0010
ENCODING -1 16
SWIDTH 0 0
DWIDTH 0 0
BBX 0 12 0 -4
BITMAP
00
00
00
00
00
00
00
00
00
00
00
00
ENDCHAR
STARTCHAR C0011
ENCODING -1 17
SWIDTH 0 0
DWIDTH 0 0
BBX 0 12 0 -4
BITMAP
00
00
00
00
00
00
00
00
00
00
00
00
ENDCHAR
STARTCHAR C0012
ENCODING -1 18
SWIDTH 0 0
DWIDTH 0 0
BBX 0 12 0 -4
BITMAP
00
00
00
00
00
00
00
00
00
00
00
00
ENDCHAR
STARTCHAR C0013
ENCODING -1 19
SWIDTH 0 0
DWIDTH 0 0
BBX 0 12 0 -4
BITMAP
00
00
00
00
00
00
00
00
00
00
00
00
ENDCHAR
STARTCHAR C0014
ENCODING -1 20
SWIDTH 0 0
DWIDTH 0 0
BBX 0 12 0 -4
BITMAP
00
00
00
00
00
00
00
00
00
00
00
00
ENDCHAR
STARTCHAR C0015
ENCODING -1 21
SWIDTH 0 0
DWIDTH 0 0
BBX 0 12 0 -4
BITMAP
00
00
00
00
00
00
00
00
00
00
00
00
ENDCHAR
STARTCHAR C0016
ENCODING -1 22
SWIDTH 0 0
DWIDTH 0 0
BBX 0 12 0 -4
BITMAP
00
00
00
00
00
00
00
00
00
00
00
00
ENDCHAR
STARTCHAR C0017
ENCODING -1 23
SWIDTH 0 0
DWIDTH 0 0
BBX 0 12 0 -4
BITMAP
00
00
00
00
00
00
00
00
00
00
00
00
ENDCHAR
STARTCHAR C0018
ENCODING -1 24
SWIDTH 0 0
DWIDTH 0 0
BBX 15 12 0 -4
BITMAP
0000
0000
0000
0000
0000
0000
0000
0000
0000
0000
0000
7FFE
ENDCHAR
STARTCHAR C0019
ENCODING -1 25
SWIDTH 0 0
DWIDTH 0 0
BBX 0 12 0 -4
BITMAP
00
00
00
00
00
00
00
00
00
00
00
00
ENDCHAR
STARTCHAR C001A
ENCODING -1 26
SWIDTH 0 0
DWIDTH 0 0
BBX 0 12 0 -4
BITMAP
00
00
00
00
00
00
00
00
00
00
00
00
ENDCHAR
STARTCHAR C001B
ENCODING -1 27
SWIDTH 0 0
DWIDTH 0 0
BBX 0 12 0 -4
BITMAP
00
00
00
00
00
00
00
00
00
00
00
00
ENDCHAR
STARTCHAR C001C
ENCODING -1 28
SWIDTH 0 0
DWIDTH 0 0
BBX 0 12 0 -4
BITMAP
00
00
00
00
00
00
00
00
00
00
00
00
ENDCHAR
STARTCHAR C001D
ENCODING -1 29
SWIDTH 0 0
DWIDTH 0 0
BBX 0 12 0 -4
BITMAP
00
00
00
00
00
00
00
00
00
00
00
00
ENDCHAR
STARTCHAR C001E
ENCODING -1 30
SWIDTH 0 0
DWIDTH 0 0
BBX 0 12 0 -4
BITMAP
00
00
00
00
00
00
00
00
00
00
00
00
ENDCHAR
STARTCHAR C001F
ENCODING -1 31
SWIDTH 0 0
DWIDTH 0 0
BBX 0 12 0 -4
BITMAP
00
00
00
00
00
00
00
00
00
00
00
00
ENDCHAR
STARTCHAR C0020
ENCODING -1 32
SWIDTH 417 0
DWIDTH 5 0
BBX 5 12 0 -4
BITMAP
00
00
00
00
00
00
00
00
00
00
00
00
ENDCHAR
STARTCHAR C0021
ENCODING -1 33
SWIDTH 417 0
DWIDTH 5 0
BBX 5 12 0 -4
BITMAP
00
08
08
08
10
10
00
20
20
00
00
00
ENDCHAR
STARTCHAR C0022
ENCODING -1 34
SWIDTH 583 0
DWIDTH 7 0
BBX 7 12 0 -4
BITMAP
00
12
12
24
24
00
00
00
00
00
00
00
ENDCHAR
STARTCHAR C0023
ENCODING -1 35
SWIDTH 917 0
DWIDTH 11 0
BBX 11 12 0 -4
BITMAP
0000
0120
0240
0FE0
0480
0900
3F80
1200
2400
0000
0000
0000
ENDCHAR
STARTCHAR C0024
ENCODING -1 36
SWIDTH 667 0
DWIDTH 8 0
BBX 8 12 0 -4
BITMAP
02
0F
15
14
0C
06
09
29
3E
10
00
00
ENDCHAR
STARTCHAR C0025
ENCODING -1 37
SWIDTH 1000 0
DWIDTH 12 0
BBX 12 12 0 -4
BITMAP
0000
0FE0
1240
2480
1900
0260
0490
0920
10C0
0000
0000
0000
ENDCHAR
STARTCHAR C0026
ENCODING -1 38
SWIDTH 750 0
DWIDTH 9 0
BBX 9 12 0 -4
BITMAP
0000
0300
0500
0600
0C00
1580
2500
2200
1F80
0000
0000
0000
ENDCHAR
STARTCHAR C0027
ENCODING -1 39
SWIDTH 333 0
DWIDTH 4 0
BBX 4 12 0 -4
BITMAP
00
10
10
20
20
00
00
00
00
00
00
00
ENDCHAR
STARTCHAR C0028
ENCODING -1 40
SWIDTH 583 0
DWIDTH 7 0
BBX 7 12 0 -4
BITMAP
00
02
04
08
10
10
20
20
20
20
10
00
ENDCHAR
STARTCHAR C0029
ENCODING -1 41
SWIDTH 583 0
DWIDTH 7 0
BBX 7 12 0 -4
BITMAP
00
04
02
02
02
02
04
04
08
10
20
00
ENDCHAR
STARTCHAR C002A
ENCODING -1 42
SWIDTH 583 0
DWIDTH 7 0
BBX 7 12 0 -4
BITMAP
08
2A
1C
2A
08
00
00
00
00
00
00
00
ENDCHAR
STARTCHAR C002B
ENCODING -1 43
SWIDTH 667 0
DWIDTH 8 0
BBX 8 12 0 -4
BITMAP
00
00
00
00
04
04
3F
08
08
00
00
00
ENDCHAR
STARTCHAR C002C
ENCODING -1 44
SWIDTH 333 0
DWIDTH 4 0
BBX 4 12 0 -4
BITMAP
00
00
00
00
00
00
00
30
10
20
40
00
ENDCHAR
STARTCHAR C002D
ENCODING -1 45
SWIDTH 500 0
DWIDTH 6 0
BBX 6 12 0 -4
BITMAP
00
00
00
00
00
3C
00
00
00
00
00
00
ENDCHAR
STARTCHAR C002E
ENCODING -1 46
SWIDTH 250 0
DWIDTH 3 0
BBX 3 12 0 -4
BITMAP
00
00
00
00
00
00
00
20
20
00
00
00
ENDCHAR
STARTCHAR C002F
ENCODING -1 47
SWIDTH 583 0
DWIDTH 7 0
BBX 7 12 0 -4
BITMAP
00
02
02
04
08
08
10
20
20
00
00
00
ENDCHAR
STARTCHAR C0030
ENCODING -1 48
SWIDTH 500 0
DWIDTH 6 0
BBX 6 12 0 -4
BITMAP
00
18
24
24
44
44
48
48
30
00
00
00
ENDCHAR
STARTCHAR C0031
ENCODING -1 49
SWIDTH 500 0
DWIDTH 6 0
BBX 6 12 0 -4
BITMAP
00
04
1C
04
08
08
10
10
38
00
00
00
ENDCHAR
STARTCHAR C0032
ENCODING -1 50
SWIDTH 500 0
DWIDTH 6 0
BBX 6 12 0 -4
BITMAP
00
18
24
04
04
08
10
24
78
00
00
00
ENDCHAR
STARTCHAR C0033
ENCODING -1 51
SWIDTH 500 0
DWIDTH 6 0
BBX 6 12 0 -4
BITMAP
00
18
24
04
38
08
08
48
30
00
00
00
ENDCHAR
STARTCHAR C0034
ENCODING -1 52
SWIDTH 500 0
DWIDTH 6 0
BBX 6 12 0 -4
BITMAP
00
0C
14
24
28
48
7C
10
10
00
00
00
ENDCHAR
STARTCHAR C0035
ENCODING -1 53
SWIDTH 500 0
DWIDTH 6 0
BBX 6 12 0 -4
BITMAP
00
1C
20
20
50
08
08
10
60
00
00
00
ENDCHAR
STARTCHAR C0036
ENCODING -1 54
SWIDTH 500 0
DWIDTH 6 0
BBX 6 12 0 -4
BITMAP
00
0C
10
20
30
48
48
48
30
00
00
00
ENDCHAR
STARTCHAR C0037
ENCODING -1 55
SWIDTH 500 0
DWIDTH 6 0
BBX 6 12 0 -4
BITMAP
00
3C
48
10
10
20
20
40
40
00
00
00
ENDCHAR
STARTCHAR C0038
ENCODING -1 56
SWIDTH 500 0
DWIDTH 6 0
BBX 6 12 0 -4
BITMAP
00
18
24
24
18
30
48
48
30
00
00
00
ENDCHAR
STARTCHAR C0039
ENCODING -1 57
SWIDTH 500 0
DWIDTH 6 0
BBX 6 12 0 -4
BITMAP
00
18
24
24
24
18
08
10
60
00
00
00
ENDCHAR
STARTCHAR C003A
ENCODING -1 58
SWIDTH 333 0
DWIDTH 4 0
BBX 4 12 0 -4
BITMAP
00
00
00
10
10
00
00
20
20
00
00
00
ENDCHAR
STARTCHAR C003B
ENCODING -1 59
SWIDTH 417 0
DWIDTH 5 0
BBX 5 12 0 -4
BITMAP
00
00
00
08
08
00
00
30
10
20
40
00
ENDCHAR
STARTCHAR C003C
ENCODING -1 60
SWIDTH 583 0
DWIDTH 7 0
BBX 7 12 0 -4
BITMAP
00
02
04
08
10
20
10
08
04
00
00
00
ENDCHAR
STARTCHAR C003D
ENCODING -1 61
SWIDTH 583 0
DWIDTH 7 0
BBX 7 12 0 -4
BITMAP
00
00
00
00
00
1E
00
3C
00
00
00
00
ENDCHAR
STARTCHAR C003E
ENCODING -1 62
SWIDTH 583 0
DWIDTH 7 0
BBX 7 12 0 -4
BITMAP
00
10
08
04
02
04
08
10
20
00
00
00
ENDCHAR
STARTCHAR C003F
ENCODING -1 63
SWIDTH 500 0
DWIDTH 6 0
BBX 6 12 0 -4
BITMAP
00
18
24
04
08
10
00
20
20
00
00
00
ENDCHAR
STARTCHAR C0040
ENCODING -1 64
SWIDTH 1083 0
DWIDTH 13 0
BBX 13 12 0 -4
BITMAP
01E0
0610
0808
11C8
2248
2490
25A0
22C0
1000
0FE0
0000
0000
ENDCHAR
STARTCHAR C0041
ENCODING -1 65
SWIDTH 667 0
DWIDTH 8 0
BBX 8 12 0 -4
BITMAP
00
06
06
0A
0A
12
1E
22
77
00
00
00
ENDCHAR
STARTCHAR C0042
ENCODING -1 66
SWIDTH 667 0
DWIDTH 8 0
BBX 8 12 0 -4
BITMAP
00
1E
09
09
1E
12
12
22
7C
00
00
00
ENDCHAR
STARTCHAR C0043
ENCODING -1 67
SWIDTH 667 0
DWIDTH 8 0
BBX 8 12 0 -4
BITMAP
00
0D
33
20
40
40
40
42
3C
00
00
00
ENDCHAR
STARTCHAR C0044
ENCODING -1 68
SWIDTH 750 0
DWIDTH 9 0
BBX 9 12 0 -4
BITMAP
0000
1F00
0880
0880
1080
1080
1100
2300
7C00
0000
0000
0000
ENDCHAR
STARTCHAR C0045
ENCODING -1 69
SWIDTH 750 0
DWIDTH 9 0
BBX 9 12 0 -4
BITMAP
0000
1F80
0880
0A00
1C00
1400
1000
2100
7E00
0000
0000
0000
ENDCHAR
STARTCHAR C0046
ENCODING -1 70
SWIDTH 750 0
DWIDTH 9 0
BBX 9 12 0 -4
BITMAP
0000
1F80
0880
0A00
1C00
1400
1000
2000
7000
0000
0000
0000
ENDCHAR
STARTCHAR C0047
ENCODING -1 71
SWIDTH 667 0
DWIDTH 8 0
BBX 8 12 0 -4
BITMAP
00
0D
33
20
40
47
42
44
38
00
00
00
ENDCHAR
STARTCHAR C0048
ENCODING -1 72
SWIDTH 833 0
DWIDTH 10 0
BBX 10 12 0 -4
BITMAP
0000
1DC0
0880
0880
1F00
1100
1100
2200
7700
0000
0000
0000
ENDCHAR
STARTCHAR C0049
ENCODING -1 73
SWIDTH 500 0
DWIDTH 6 0
BBX 6 12 0 -4
BITMAP
00
1C
08
08
10
10
10
20
70
00
00
00
ENDCHAR
STARTCHAR C004A
ENCODING -1 74
SWIDTH 583 0
DWIDTH 7 0
BBX 7 12 0 -4
BITMAP
00
0E
04
04
08
08
08
50
70
00
00
00
ENDCHAR
STARTCHAR C004B
ENCODING -1 75
SWIDTH 750 0
DWIDTH 9 0
BBX 9 12 0 -4
BITMAP
0000
1D80
0900
0A00
1C00
1400
1400
2200
7700
0000
0000
0000
ENDCHAR
STARTCHAR C004C
ENCODING -1 76
SWIDTH 667 0
DWIDTH 8 0
BBX 8 12 0 -4
BITMAP
00
1C
08
08
10
10
11
22
7E
00
00
00
ENDCHAR
STARTCHAR C004D
ENCODING -1 77
SWIDTH 1167 0
DWIDTH 14 0
BBX 14 12 0 -4
BITMAP
0000
1E1C
0A28
0A50
1250
1290
1320
2320
7270
0000
0000
0000
ENDCHAR
STARTCHAR C004E
ENCODING -1 78
SWIDTH 917 0
DWIDTH 11 0
BBX 11 12 0 -4
BITMAP
0000
18E0
0840
0C40
1480
1280
1280
2100
7100
0000
0000
0000
ENDCHAR
STARTCHAR C004F
ENCODING -1 79
SWIDTH 750 0
DWIDTH 9 0
BBX 9 12 0 -4
BITMAP
0000
0E00
3100
2080
4080
4080
4100
2300
1C00
0000
0000
0000
ENDCHAR
STARTCHAR C0050
ENCODING -1 80
SWIDTH 750 0
DWIDTH 9 0
BBX 9 12 0 -4
BITMAP
0000
1E00
0900
0900
1100
1E00
1000
2000
7000
0000
0000
0000
ENDCHAR
STARTCHAR C0051
ENCODING -1 81
SWIDTH 750 0
DWIDTH 9 0
BBX 9 12 0 -4
BITMAP
0000
0E00
3100
2080
4080
4080
4100
2300
1C00
1100
2E00
0000
ENDCHAR
STARTCHAR C0052
ENCODING -1 82
SWIDTH 667 0
DWIDTH 8 0
BBX 8 12 0 -4
BITMAP
00
1E
09
09
1E
14
14
22
73
00
00
00
ENDCHAR
STARTCHAR C0053
ENCODING -1 83
SWIDTH 583 0
DWIDTH 7 0
BBX 7 12 0 -4
BITMAP
00
1A
26
20
10
08
04
64
58
00
00
00
ENDCHAR
STARTCHAR C0054
ENCODING -1 84
SWIDTH 667 0
DWIDTH 8 0
BBX 8 12 0 -4
BITMAP
00
7F
49
08
10
10
10
20
70
00
00
00
ENDCHAR
STARTCHAR C0055
ENCODING -1 85
SWIDTH 833 0
DWIDTH 10 0
BBX 10 12 0 -4
BITMAP
0000
39C0
1080
1080
2100
2100
2100
2200
1C00
0000
0000
0000
ENDCHAR
STARTCHAR C0056
ENCODING -1 86
SWIDTH 667 0
DWIDTH 8 0
BBX 8 12 0 -4
BITMAP
00
77
22
24
24
28
28
30
30
00
00
00
ENDCHAR
STARTCHAR C0057
ENCODING -1 87
SWIDTH 1000 0
DWIDTH 12 0
BBX 12 12 0 -4
BITMAP
0000
7770
2220
2640
2A80
2A80
3300
3300
2200
0000
0000
0000
ENDCHAR
STARTCHAR C0058
ENCODING -1 88
SWIDTH 667 0
DWIDTH 8 0
BBX 8 12 0 -4
BITMAP
00
3B
12
14
08
08
14
24
6E
00
00
00
ENDCHAR
STARTCHAR C0059
ENCODING -1 89
SWIDTH 667 0
DWIDTH 8 0
BBX 8 12 0 -4
BITMAP
00
73
22
14
18
10
10
20
70
00
00
00
ENDCHAR
STARTCHAR C005A
ENCODING -1 90
SWIDTH 667 0
DWIDTH 8 0
BBX 8 12 0 -4
BITMAP
00
3E
42
04
08
10
20
42
7C
00
00
00
ENDCHAR
STARTCHAR C005B
ENCODING -1 91
SWIDTH 667 0
DWIDTH 8 0
BBX 8 12 0 -4
BITMAP
00
07
04
08
08
08
10
10
10
20
38
00
ENDCHAR
STARTCHAR C005C
ENCODING -1 92
SWIDTH 417 0
DWIDTH 5 0
BBX 5 12 0 -4
BITMAP
00
20
20
10
10
10
08
08
08
00
00
00
ENDCHAR
STARTCHAR C005D
ENCODING -1 93
SWIDTH 667 0
DWIDTH 8 0
BBX 8 12 0 -4
BITMAP
00
07
01
02
02
02
04
04
04
08
38
00
ENDCHAR
STARTCHAR C005E
ENCODING -1 94
SWIDTH 583 0
DWIDTH 7 0
BBX 7 12 0 -4
BITMAP
00
00
08
1C
2A
08
10
10
10
00
00
00
ENDCHAR
STARTCHAR C005F
ENCODING -1 95
SWIDTH 750 0
DWIDTH 9 0
BBX 9 12 0 -4
BITMAP
0000
0000
0000
0400
0800
3F80
1000
0800
0000
0000
0000
0000
ENDCHAR
STARTCHAR C0060
ENCODING -1 96
SWIDTH 0 0
DWIDTH 0 0
BBX 0 12 0 -4
BITMAP
00
00
00
00
00
00
00
00
00
00
00
00
ENDCHAR
STARTCHAR C0061
ENCODING -1 97
SWIDTH 583 0
DWIDTH 7 0
BBX 7 12 0 -4
BITMAP
00
00
00
1A
24
44
48
48
34
00
00
00
ENDCHAR
STARTCHAR C0062
ENCODING -1 98
SWIDTH 500 0
DWIDTH 6 0
BBX 6 12 0 -4
BITMAP
00
30
10
18
24
24
44
48
30
00
00
00
ENDCHAR
STARTCHAR C0063
ENCODING -1 99
SWIDTH 500 0
DWIDTH 6 0
BBX 6 12 0 -4
BITMAP
00
00
00
18
24
40
40
48
30
00
00
00
ENDCHAR
STARTCHAR C0064
ENCODING -1 100
SWIDTH 583 0
DWIDTH 7 0
BBX 7 12 0 -4
BITMAP
00
06
02
1C
24
48
48
48
34
00
00
00
ENDCHAR
STARTCHAR C0065
ENCODING -1 101
SWIDTH 500 0
DWIDTH 6 0
BBX 6 12 0 -4
BITMAP
00
00
00
18
24
48
70
44
38
00
00
00
ENDCHAR
STARTCHAR C0066
ENCODING -1 102
SWIDTH 500 0
DWIDTH 6 0
BBX 8 12 0 -4
BITMAP
00
07
08
3E
08
10
10
10
20
A0
40
00
ENDCHAR
STARTCHAR C0067
ENCODING -1 103
SWIDTH 583 0
DWIDTH 7 0
BBX 7 12 0 -4
BITMAP
00
00
00
1A
24
24
18
20
58
84
78
00
ENDCHAR
STARTCHAR C0068
ENCODING -1 104
SWIDTH 500 0
DWIDTH 6 0
BBX 6 12 0 -4
BITMAP
00
30
10
18
24
24
24
48
4C
00
00
00
ENDCHAR
STARTCHAR C0069
ENCODING -1 105
SWIDTH 417 0
DWIDTH 5 0
BBX 5 12 0 -4
BITMAP
08
08
00
30
10
10
20
20
30
00
00
00
ENDCHAR
STARTCHAR C006A
ENCODING -1 106
SWIDTH 500 0
DWIDTH 6 0
BBX 6 12 0 -4
BITMAP
04
04
00
18
08
08
10
10
10
50
60
00
ENDCHAR
STARTCHAR C006B
ENCODING -1 107
SWIDTH 583 0
DWIDTH 7 0
BBX 7 12 0 -4
BITMAP
00
30
10
26
28
30
50
48
4C
00
00
00
ENDCHAR
STARTCHAR C006C
ENCODING -1 108
SWIDTH 417 0
DWIDTH 5 0
BBX 5 12 0 -4
BITMAP
00
18
08
10
10
10
20
20
30
00
00
00
ENDCHAR
STARTCHAR C006D
ENCODING -1 109
SWIDTH 750 0
DWIDTH 9 0
BBX 9 12 0 -4
BITMAP
0000
0000
0000
6900
3680
2480
4900
4900
4980
0000
0000
0000
ENDCHAR
STARTCHAR C006E
ENCODING -1 110
SWIDTH 500 0
DWIDTH 6 0
BBX 6 12 0 -4
BITMAP
00
00
00
78
24
24
48
48
4C
00
00
00
ENDCHAR
STARTCHAR C006F
ENCODING -1 111
SWIDTH 500 0
DWIDTH 6 0
BBX 6 12 0 -4
BITMAP
00
00
00
18
24
44
44
48
30
00
00
00
ENDCHAR
STARTCHAR C0070
ENCODING -1 112
SWIDTH 583 0
DWIDTH 7 0
BBX 7 12 0 -4
BITMAP
00
00
00
3C
12
12
22
24
38
40
E0
00
ENDCHAR
STARTCHAR C0071
ENCODING -1 113
SWIDTH 500 0
DWIDTH 6 0
BBX 6 12 0 -4
BITMAP
00
00
00
1C
24
44
48
48
38
10
38
00
ENDCHAR
STARTCHAR C0072
ENCODING -1 114
SWIDTH 500 0
DWIDTH 6 0
BBX 6 12 0 -4
BITMAP
00
00
00
3C
14
10
20
20
70
00
00
00
ENDCHAR
STARTCHAR C0073
ENCODING -1 115
SWIDTH 500 0
DWIDTH 6 0
BBX 6 12 0 -4
BITMAP
00
00
00
1C
24
10
08
48
70
00
00
00
ENDCHAR
STARTCHAR C0074
ENCODING -1 116
SWIDTH 333 0
DWIDTH 4 0
BBX 5 12 0 -4
BITMAP
00
10
10
78
20
20
40
50
60
00
00
00
ENDCHAR
STARTCHAR C0075
ENCODING -1 117
SWIDTH 500 0
DWIDTH 6 0
BBX 6 12 0 -4
BITMAP
00
00
00
6C
24
24
48
48
3C
00
00
00
ENDCHAR
STARTCHAR C0076
ENCODING -1 118
SWIDTH 500 0
DWIDTH 6 0
BBX 6 12 0 -4
BITMAP
00
00
00
6C
24
24
28
28
30
00
00
00
ENDCHAR
STARTCHAR C0077
ENCODING -1 119
SWIDTH 833 0
DWIDTH 10 0
BBX 10 12 0 -4
BITMAP
0000
0000
0000
66C0
2640
2A80
2A80
3300
2200
0000
0000
0000
ENDCHAR
STARTCHAR C0078
ENCODING -1 120
SWIDTH 667 0
DWIDTH 8 0
BBX 8 12 0 -4
BITMAP
00
00
00
33
14
0C
18
14
66
00
00
00
ENDCHAR
STARTCHAR C0079
ENCODING -1 121
SWIDTH 667 0
DWIDTH 8 0
BBX 8 12 0 -4
BITMAP
00
00
00
33
11
12
12
14
0C
08
50
20
ENDCHAR
STARTCHAR C007A
ENCODING -1 122
SWIDTH 500 0
DWIDTH 6 0
BBX 6 12 0 -4
BITMAP
00
00
00
1C
24
08
10
24
78
00
00
00
ENDCHAR
STARTCHAR C007B
ENCODING -1 123
SWIDTH 667 0
DWIDTH 8 0
BBX 8 12 0 -4
BITMAP
00
03
04
04
08
30
08
08
10
10
0C
00
ENDCHAR
STARTCHAR C007C
ENCODING -1 124
SWIDTH 500 0
DWIDTH 6 0
BBX 6 12 0 -4
BITMAP
00
04
04
08
08
08
10
10
10
20
20
00
ENDCHAR
STARTCHAR C007D
ENCODING -1 125
SWIDTH 667 0
DWIDTH 8 0
BBX 8 12 0 -4
BITMAP
00
0C
02
04
04
03
04
08
08
08
30
00
ENDCHAR
STARTCHAR C007E
ENCODING -1 126
SWIDTH 667 0
DWIDTH 8 0
BBX 8 12 0 -4
BITMAP
00
00
00
00
19
26
00
00
00
00
00
00
ENDCHAR
STARTCHAR C007F
ENCODING -1 127
SWIDTH 0 0
DWIDTH 0 0
BBX 0 12 0 -4
BITMAP
00
00
00
00
00
00
00
00
00
00
00
00
ENDCHAR
ENDFONT
